<?xml version="1.0" standalone="no"?>
<svg viewBox="0 0 200 200" xmlns="http://www.w3.org/2000/svg">
  <path fill="#ABC4FF" d="M47,-71.2C59.9,-64.8,68.5,-50,73.9,-34.8C79.2,-19.5,81.3,-3.8,76.3,9C71.4,21.7,59.5,31.5,49.2,41.6C38.8,51.6,30,62,19.5,64C9,66,-3.3,59.6,-13.6,53.3C-23.8,47.1,-32.1,41,-44.8,34.4C-57.5,27.7,-74.6,20.4,-79.8,9.2C-85.1,-2.1,-78.3,-17.4,-67.8,-27.1C-57.3,-36.7,-43.1,-40.8,-31.1,-47.5C-19.2,-54.3,-9.6,-63.8,3.7,-69.6C17.1,-75.4,34.1,-77.5,47,-71.2Z" transform="translate(100 100)" />
</svg>
